<svg width="26" height="24" viewBox="0 0 26 24" fill="none" xmlns="http://www.w3.org/2000/svg">
<path d="M24.6022 8.05935L17.7753 7.06541L14.7244 0.890505C14.4502 0.338732 13.9152 0.0598145 13.3802 0.0598145C12.8485 0.0598145 12.3172 0.335001 12.042 0.890505L8.99027 7.06494L2.16285 8.05795C0.938502 8.23519 0.44783 9.74125 1.33542 10.6041L6.27432 15.4082L5.10548 22.1937C4.93943 23.1629 5.71322 23.9404 6.57983 23.9404C6.80977 23.9404 7.04624 23.8858 7.27339 23.7655L13.3811 20.5621L19.4884 23.7664C19.7151 23.8854 19.9511 23.9395 20.1801 23.9395C21.0476 23.9395 21.8228 23.1648 21.6568 22.1951L20.4893 15.4092L25.4292 10.606C26.3172 9.74312 25.8266 8.23659 24.6022 8.05935ZM18.924 13.8056L18.0789 14.6274L18.2785 15.7879L19.189 21.0794L14.4254 18.5799L13.3816 18.0323L13.383 3.23799L15.7631 8.05562L16.2846 9.11112L17.4511 9.2809L22.779 10.0565L18.924 13.8056Z" fill="#FBB224"/>
</svg>
